<?xml version="1.0" standalone="no"?>
<!DOCTYPE svg PUBLIC "-//W3C//DTD SVG 20010904//EN"
 "http://www.w3.org/TR/2001/REC-SVG-20010904/DTD/svg10.dtd">
<svg version="1.0" xmlns="http://www.w3.org/2000/svg"
 width="732.000000pt" height="200.000000pt" viewBox="0 0 732.000000 200.000000"
 preserveAspectRatio="xMidYMid meet">

<g transform="translate(0.000000,200.000000) scale(0.100000,-0.100000)"
fill="#000000" stroke="none">
<path d="M0 1000 l0 -1000 3660 0 3660 0 0 1000 0 1000 -3660 0 -3660 0 0
-1000z m4588 363 c-2 -10 -13 -19 -26 -21 -24 -4 -29 7 -10 26 18 18 40 15 36
-5z m-1918 -7 c0 -22 -17 -36 -41 -36 -19 0 -32 -6 -36 -17 -4 -10 -11 -21
-16 -24 -20 -14 2 -39 33 -39 28 0 30 -2 16 -15 -8 -8 -23 -15 -34 -15 -27 0
-37 -16 -51 -85 -7 -33 -16 -69 -21 -80 -5 -11 -11 -32 -14 -47 -4 -19 -13
-28 -26 -28 -22 0 -25 11 -10 38 9 17 40 161 40 188 0 8 -7 14 -15 14 -8 0
-15 7 -15 15 0 8 8 15 18 15 24 0 42 19 42 44 0 35 49 76 92 76 21 0 38 -2 38
-4z m2407 -9 c-2 -7 -10 -39 -16 -72 -7 -33 -16 -69 -21 -80 -5 -11 -14 -44
-20 -72 -8 -33 -17 -53 -26 -53 -8 0 -14 7 -14 15 0 19 -11 19 -36 0 -53 -40
-120 6 -108 74 14 74 68 130 125 131 24 0 39 -5 43 -16 10 -25 23 -7 30 41 6
36 11 45 28 45 12 0 18 -5 15 -13z m-2929 -19 c-3 -9 -33 -14 -89 -16 -96 -3
-103 -8 -114 -86 l-7 -46 82 0 c71 0 81 -2 76 -16 -3 -9 -6 -20 -6 -25 0 -5
-38 -9 -85 -9 -75 0 -85 -2 -85 -18 0 -10 -4 -22 -9 -27 -4 -6 -11 -25 -14
-42 l-6 -33 89 0 c50 0 90 -2 90 -4 0 -32 -14 -36 -122 -36 l-110 0 7 48 c4
26 10 49 15 52 4 3 15 49 25 103 10 53 22 97 27 97 4 0 8 9 8 19 0 49 6 51
122 51 83 0 109 -3 106 -12z m1858 -22 c30 -30 34 -40 34 -85 0 -46 -24 -139
-39 -151 -3 -3 -11 -14 -17 -25 -6 -11 -21 -25 -34 -32 -12 -6 -26 -17 -31
-24 -5 -8 -35 -15 -77 -17 -61 -4 -72 -1 -96 19 -73 64 -41 239 59 314 36 27
54 32 119 34 42 1 52 -3 82 -33z m348 13 c27 -21 35 -62 14 -75 -6 -4 -17 1
-24 12 -27 40 -49 54 -81 54 -18 0 -33 -4 -33 -10 0 -5 -5 -10 -12 -10 -17 0
-48 -31 -48 -48 0 -27 32 -52 86 -68 69 -20 88 -42 81 -95 -7 -55 -50 -96
-111 -108 -87 -16 -156 17 -156 75 0 19 5 24 25 24 17 0 25 -5 25 -18 0 -29
21 -42 70 -42 59 0 92 18 102 55 7 24 4 33 -13 48 -12 9 -28 17 -36 17 -31 0
-104 42 -113 65 -10 26 1 77 22 103 37 44 156 57 202 21z m203 -51 c-3 -13 -9
-41 -13 -63 -3 -22 -10 -44 -14 -50 -5 -5 -11 -27 -15 -47 -5 -27 -12 -38 -25
-38 -13 0 -16 6 -12 28 2 15 9 33 14 39 6 7 8 20 4 28 -3 8 -2 15 3 15 5 0 12
21 16 48 8 56 11 62 32 62 11 0 14 -7 10 -22z m106 10 c4 -10 7 -10 18 0 15
14 77 16 99 3 16 -11 18 -75 2 -94 -6 -7 -13 -34 -17 -60 -6 -42 -26 -69 -40
-56 -6 6 15 101 28 127 15 31 -1 56 -40 60 -23 2 -36 -3 -52 -24 -11 -15 -21
-37 -21 -50 0 -12 -4 -25 -9 -28 -5 -4 -12 -24 -16 -46 -5 -29 -12 -40 -24
-40 -16 0 -17 6 -8 55 6 30 14 55 18 55 3 0 10 21 14 48 4 26 9 50 12 55 7 11
31 8 36 -5z m629 -18 c13 -18 17 -34 12 -58 l-6 -32 -84 0 c-78 0 -84 -1 -84
-21 0 -11 6 -27 14 -35 19 -18 70 -18 86 1 7 8 22 15 34 15 18 -1 17 -4 -14
-31 -29 -25 -42 -29 -79 -27 -34 2 -48 9 -64 30 -29 39 -16 88 37 144 40 42
47 45 86 42 32 -2 48 -9 62 -28z m88 5 c0 -14 5 -25 10 -25 6 0 10 -27 10 -60
0 -33 4 -60 8 -60 4 0 15 15 24 33 44 92 74 137 91 137 16 0 15 -5 -9 -47 -14
-27 -42 -71 -60 -99 -19 -28 -34 -56 -34 -63 0 -6 -11 -11 -25 -11 -24 0 -25
3 -25 53 0 29 -4 57 -9 63 -5 5 -11 30 -13 57 -3 39 0 47 14 47 13 0 18 -8 18
-25z m-2996 -30 c31 -28 31 -29 10 -131 -22 -108 -34 -134 -63 -134 -18 0 -21
3 -12 13 12 16 41 145 41 188 0 62 -88 58 -119 -6 -8 -16 -18 -38 -22 -47 -5
-9 -14 -46 -20 -82 -11 -58 -15 -66 -35 -66 -20 0 -21 2 -12 48 5 26 13 56 19
67 5 11 15 49 22 85 11 56 16 65 36 68 19 3 23 0 17 -14 -6 -17 -6 -17 12 -1
10 9 26 17 35 17 9 0 19 5 22 10 11 17 41 11 69 -15z m454 8 c65 -38 74 -90
31 -180 -32 -67 -70 -93 -134 -93 -59 0 -75 10 -101 66 -11 23 -13 38 -6 47 5
6 13 27 17 45 9 44 58 99 95 107 17 4 32 11 35 16 9 14 30 11 63 -8z m282 8
c0 -26 -15 -41 -40 -41 -41 0 -77 -39 -85 -94 -4 -25 -11 -46 -15 -46 -5 0
-11 -22 -15 -50 -6 -44 -10 -50 -30 -50 -19 0 -22 4 -18 23 2 12 9 31 14 42 5
11 17 61 27 110 16 81 20 90 41 93 18 3 22 0 18 -12 -5 -13 -3 -15 11 -7 9 5
26 16 37 25 22 17 55 21 55 7z m192 -8 c38 -21 48 -31 48 -55 0 -26 -35 -22
-64 7 -30 30 -67 26 -101 -9 -42 -43 -61 -136 -33 -164 22 -22 87 -15 112 13
24 26 56 34 56 14 0 -6 -15 -26 -34 -45 -30 -30 -40 -34 -88 -34 -46 0 -58 4
-79 26 -57 60 -2 218 84 239 15 4 30 11 33 16 8 14 29 11 66 -8z m287 0 c36
-20 44 -41 39 -104 l-3 -44 -102 -3 c-98 -3 -103 -4 -103 -24 0 -36 29 -58 75
-58 26 0 48 6 55 15 7 8 23 15 37 15 20 0 22 -3 14 -19 -17 -30 -76 -52 -132
-49 -49 3 -52 5 -76 47 -19 35 -22 49 -14 65 5 12 15 38 21 58 13 41 70 98
100 98 10 0 22 5 25 10 9 15 29 12 64 -7z m61 -538 c0 -8 -4 -15 -9 -15 -13 0
-22 16 -14 24 11 11 23 6 23 -9z m-450 -75 c0 -64 -3 -80 -15 -80 -12 0 -15
15 -15 73 0 41 3 77 7 80 17 18 23 0 23 -73z m400 1 l0 -79 -42 0 c-54 -1 -68
11 -68 58 0 44 20 64 55 58 21 -4 25 -1 25 18 0 15 6 24 15 24 12 0 15 -15 15
-79z m-280 17 c24 -26 25 -41 4 -73 -30 -46 -104 -22 -104 33 0 57 61 81 100
40z m128 10 c7 -7 12 -34 12 -61 l0 -48 -47 3 c-41 3 -48 6 -51 25 -3 23 -1
25 67 49 12 4 12 7 -2 21 -15 15 -18 15 -36 -1 -11 -10 -21 -13 -25 -7 -15 24
60 41 82 19z m202 -48 c0 -47 -3 -60 -15 -60 -12 0 -15 13 -15 60 0 47 3 60
15 60 12 0 15 -13 15 -60z m116 -5 c1 -37 0 -45 -3 -20 -9 85 -63 96 -63 14 0
-37 -4 -49 -15 -49 -12 0 -15 13 -15 59 l0 60 48 -2 47 -2 1 -60z m154 -3 c0
-81 -11 -102 -54 -102 -19 0 -39 7 -46 15 -10 12 -10 15 1 15 8 0 21 -4 28 -9
18 -12 51 4 51 24 0 11 -8 13 -30 9 -40 -9 -60 10 -60 55 0 48 14 61 67 59
l43 -2 0 -64z m55 -42 c-3 -5 -10 -10 -16 -10 -5 0 -9 5 -9 10 0 6 7 10 16 10
8 0 12 -4 9 -10z m65 0 c-19 -13 -30 -13 -30 0 0 6 10 10 23 10 18 0 19 -2 7
-10z m65 0 c-3 -5 -13 -10 -21 -10 -8 0 -14 5 -14 10 0 6 9 10 21 10 11 0 17
-4 14 -10z"/>
<path d="M4896 1220 c-43 -65 -32 -120 24 -120 29 0 70 33 70 55 0 8 5 15 10
15 14 0 12 64 -2 78 -7 7 -26 12 -44 12 -26 0 -36 -7 -58 -40z"/>
<path d="M3880 1301 c-8 -5 -28 -15 -44 -22 -34 -16 -76 -75 -76 -106 0 -12
-4 -25 -10 -28 -5 -3 -10 -22 -10 -41 0 -19 5 -34 10 -34 6 0 10 -6 10 -13 0
-31 38 -50 90 -45 41 4 56 12 84 40 18 19 39 52 46 74 7 21 17 49 23 61 19 42
-41 124 -90 122 -10 0 -25 -4 -33 -8z"/>
<path d="M5178 1253 c-10 -2 -18 -8 -18 -13 0 -5 -3 -15 -6 -24 -5 -13 3 -16
50 -16 41 0 58 4 62 15 13 34 -31 53 -88 38z"/>
<path d="M2765 1213 c-29 -7 -54 -33 -76 -77 -24 -50 -24 -88 -1 -109 32 -29
116 -16 129 20 4 10 11 21 16 24 5 4 12 29 14 56 5 45 3 52 -22 71 -15 12 -30
21 -34 21 -3 -1 -15 -4 -26 -6z"/>
<path d="M3520 1213 c-23 -8 -70 -55 -70 -70 0 -10 21 -13 80 -13 78 0 80 1
80 24 0 15 -11 33 -26 45 -27 21 -37 24 -64 14z"/>
<path d="M3539 653 c-40 -9 -27 -97 14 -91 17 2 23 10 25 39 3 38 -12 58 -39
52z"/>
<path d="M3279 653 c-40 -9 -27 -97 14 -91 18 2 23 10 25 44 3 43 -7 54 -39
47z"/>
<path d="M3413 599 c-13 -4 -23 -13 -23 -19 0 -19 31 -23 48 -6 21 21 5 37
-25 25z"/>
<path d="M3862 653 c-22 -8 -34 -41 -22 -63 18 -34 70 -19 70 20 0 21 -31 49
-48 43z"/>
</g>
</svg>
