<?xml version="1.0" standalone="no"?>
<!DOCTYPE svg PUBLIC "-//W3C//DTD SVG 20010904//EN"
 "http://www.w3.org/TR/2001/REC-SVG-20010904/DTD/svg10.dtd">
<svg version="1.0" xmlns="http://www.w3.org/2000/svg"
 width="894.000000pt" height="894.000000pt" viewBox="0 0 894.000000 894.000000"
 preserveAspectRatio="xMidYMid meet">

<g transform="translate(0.000000,894.000000) scale(0.100000,-0.100000)"
fill="#000000" stroke="none">
<path d="M4210 8934 c-279 -20 -576 -66 -831 -130 -1592 -399 -2844 -1651
-3243 -3243 -97 -385 -130 -666 -130 -1091 0 -425 33 -706 130 -1091 399
-1592 1651 -2844 3243 -3243 385 -97 666 -130 1091 -130 425 0 706 33 1091
130 1592 399 2844 1651 3243 3243 97 385 130 666 130 1091 0 425 -33 706 -130
1091 -399 1592 -1651 2844 -3243 3243 -191 48 -409 87 -621 111 -128 15 -609
27 -730 19z m709 -149 c1005 -109 1905 -538 2617 -1249 714 -715 1136 -1602
1251 -2628 23 -211 23 -665 0 -876 -115 -1026 -537 -1913 -1251 -2628 -715
-714 -1602 -1136 -2628 -1251 -211 -23 -665 -23 -876 0 -1026 115 -1913 537
-2628 1251 -714 715 -1136 1602 -1251 2628 -23 211 -23 665 0 876 115 1026
537 1913 1251 2628 765 764 1735 1197 2841 1268 120 8 534 -4 674 -19z"/>
<path d="M4320 8443 l0 -214 43 3 42 3 5 125 5 125 36 -120 36 -120 57 -3 56
-3 0 59 c0 32 -3 127 -7 211 l-6 152 -41 -3 -41 -3 -3 -120 -3 -120 -39 120
-38 120 -51 1 -51 1 0 -214z"/>
<path d="M4119 8643 l-57 -4 -5 -47 c-19 -156 -39 -374 -34 -378 3 -3 24 -3
46 1 35 6 40 10 48 43 7 32 13 37 41 40 26 3 32 0 32 -17 0 -42 10 -51 61 -51
27 0 49 2 49 5 0 2 -25 95 -55 205 -30 110 -55 203 -55 205 0 3 -3 4 -7 3 -5
-1 -33 -3 -64 -5z m51 -265 c0 -5 -12 -8 -26 -8 l-27 0 6 68 c4 37 7 78 8 92
1 20 37 -122 39 -152z"/>
<path d="M4702 8637 c-44 -26 -53 -52 -64 -190 -11 -151 -6 -176 44 -207 40
-24 114 -26 146 -4 41 28 51 65 58 206 l7 134 -30 34 c-25 28 -37 34 -84 37
-33 2 -63 -2 -77 -10z m87 -71 c13 -15 -4 -254 -19 -270 -5 -5 -16 -6 -26 -2
-15 6 -16 19 -10 133 8 142 22 178 55 139z"/>
<path d="M4956 8602 c-14 -72 -58 -383 -55 -386 2 -2 23 -7 45 -11 l42 -6 11
63 c6 35 14 89 17 122 9 76 18 56 34 -72 8 -56 18 -109 24 -116 6 -8 30 -16
53 -19 34 -4 43 -2 47 11 9 35 60 392 55 396 -2 2 -22 7 -45 11 l-41 6 -18
-115 c-9 -64 -18 -116 -20 -116 -2 0 -11 54 -21 120 -20 131 -13 121 -91 134
-28 5 -32 2 -37 -22z"/>
<path d="M3670 8581 c-81 -16 -85 -19 -82 -42 8 -53 71 -382 75 -385 2 -3 35
2 73 10 38 7 85 17 105 20 36 6 37 7 29 42 -5 20 -10 38 -13 40 -2 2 -28 -1
-56 -7 -29 -6 -54 -9 -56 -7 -2 2 -8 22 -13 46 l-10 42 37 6 c63 10 64 11 58
50 -4 20 -8 38 -9 40 -2 1 -23 -2 -47 -7 -24 -5 -46 -8 -48 -5 -3 2 -8 20 -13
40 -9 39 -9 39 68 51 33 5 42 11 38 22 -3 8 -6 26 -6 39 0 29 -8 29 -130 5z"/>
<path d="M5284 8553 c2 -10 8 -70 11 -133 5 -89 3 -131 -9 -183 -9 -38 -16
-72 -16 -77 0 -10 79 -34 87 -26 3 3 14 40 24 84 13 59 34 106 83 188 68 116
68 117 5 129 -35 7 -35 6 -61 -52 l-26 -58 -1 66 c-1 66 -1 67 -32 73 -54 11
-71 8 -65 -11z"/>
<path d="M3360 8508 c-41 -11 -76 -20 -76 -21 -3 -3 103 -397 108 -402 4 -4
79 13 86 20 2 1 -6 40 -18 85 -17 67 -19 85 -8 91 27 18 41 3 57 -61 20 -78
32 -101 50 -96 9 3 28 8 44 12 15 3 27 8 27 11 0 3 -10 39 -22 81 -23 84 -41
112 -70 112 -18 0 -18 1 2 28 28 37 19 95 -21 134 -33 33 -55 34 -159 6z m87
-70 c6 -7 13 -25 17 -40 5 -21 2 -30 -14 -38 -11 -6 -24 -9 -29 -6 -11 7 -24
74 -16 86 9 14 31 12 42 -2z"/>
<path d="M5526 8335 c-78 -241 -77 -230 -26 -243 48 -12 39 -26 96 153 20 64
38 115 39 113 2 -2 -6 -67 -18 -146 -18 -124 -19 -145 -6 -153 36 -23 48 -10
114 121 64 127 83 158 65 103 -28 -85 -80 -251 -80 -255 0 -3 12 -9 28 -12 15
-4 34 -9 43 -12 14 -4 28 30 78 185 33 104 61 194 61 199 0 9 -110 52 -132 52
-5 0 -27 -38 -50 -85 -22 -47 -42 -84 -43 -83 -2 2 5 44 15 93 9 50 15 93 11
97 -3 3 -36 15 -73 26 l-66 19 -56 -172z"/>
<path d="M3100 8427 c-30 -11 -56 -21 -58 -22 -1 -1 12 -97 29 -212 l32 -211
45 15 c44 15 44 16 38 53 -6 36 -4 39 26 49 17 6 32 10 33 9 2 -2 10 -17 19
-35 l16 -31 42 16 c24 9 44 17 46 18 2 1 -45 86 -103 188 -59 102 -107 185
-108 185 -1 -1 -27 -10 -57 -22z m92 -255 c-22 -17 -27 -8 -46 75 -23 105 -20
107 23 18 34 -71 37 -81 23 -93z"/>
<path d="M5977 8320 c-23 -18 -105 -194 -122 -262 -25 -100 143 -184 211 -105
29 33 114 240 114 275 0 85 -135 146 -203 92z m106 -71 c14 -22 -84 -243 -110
-247 -11 -2 -23 3 -26 10 -4 12 74 211 96 246 10 15 27 12 40 -9z"/>
<path d="M2691 8259 c-47 -22 -87 -42 -90 -44 -5 -5 156 -354 170 -369 6 -7
175 61 197 79 1 1 -5 18 -13 38 l-15 37 -56 -25 c-31 -14 -58 -25 -59 -25 -3
0 -35 78 -35 84 0 3 20 12 45 22 25 9 45 19 45 21 0 4 -30 65 -35 71 -2 2 -21
-6 -44 -17 -22 -12 -43 -21 -45 -21 -7 0 -36 56 -36 68 0 5 20 17 45 26 25 10
47 22 50 26 7 11 -22 70 -33 70 -4 0 -45 -19 -91 -41z"/>
<path d="M6186 8100 c-42 -83 -76 -163 -76 -178 0 -60 68 -122 135 -122 58 0
83 28 161 182 41 81 74 151 74 156 0 13 -72 44 -81 35 -4 -4 -40 -70 -79 -145
-39 -76 -76 -141 -82 -144 -5 -4 -17 0 -25 8 -13 13 -6 33 61 166 l76 152 -40
20 c-21 11 -41 20 -44 20 -2 0 -38 -68 -80 -150z"/>
<path d="M2500 8168 c-19 -12 -36 -22 -37 -23 -2 -1 22 -57 52 -125 31 -67 54
-124 52 -126 -2 -2 -38 46 -82 106 -43 61 -80 110 -81 110 -11 0 -74 -44 -74
-51 0 -5 25 -64 54 -130 30 -66 51 -117 46 -114 -5 3 -44 53 -85 110 -83 114
-76 111 -142 68 -22 -15 -20 -17 109 -171 73 -87 133 -159 135 -161 7 -10 93
39 93 52 0 8 -20 60 -44 116 -25 55 -43 101 -42 101 2 0 36 -43 75 -95 l72
-95 27 14 c71 38 72 21 -9 239 -40 108 -75 197 -78 197 -3 0 -22 -10 -41 -22z"/>
<path d="M4220 8074 c-19 -2 -84 -9 -145 -15 -450 -45 -933 -197 -1346 -424
-141 -77 -391 -244 -524 -351 -141 -113 -436 -408 -549 -549 -366 -458 -612
-985 -725 -1550 -56 -276 -65 -381 -65 -715 0 -334 9 -439 65 -715 113 -565
359 -1092 725 -1550 113 -141 408 -436 549 -549 458 -366 985 -612 1550 -725
276 -56 381 -65 715 -65 334 0 439 9 715 65 565 113 1092 359 1550 725 141
113 436 408 549 549 366 458 612 985 725 1550 56 276 65 381 65 715 0 334 -9
439 -65 715 -113 565 -359 1092 -725 1550 -113 141 -408 436 -549 549 -529
423 -1145 683 -1825 772 -118 15 -603 28 -690 18z m670 -149 c402 -51 758
-158 1115 -335 368 -183 646 -380 925 -660 280 -279 477 -557 660 -925 177
-358 282 -705 337 -1120 24 -183 24 -647 0 -830 -37 -274 -99 -530 -192 -790
-56 -157 -219 -490 -312 -638 -426 -675 -1062 -1184 -1801 -1441 -94 -32 -134
-42 -136 -33 -6 20 -36 470 -32 475 2 2 26 -4 53 -13 125 -43 320 -57 463 -34
94 15 219 60 302 109 67 40 238 192 238 212 0 4 -18 -3 -39 -16 -112 -71 -259
-108 -426 -108 -190 0 -304 31 -525 142 -97 49 -100 51 -100 84 0 62 11 63
212 7 239 -66 339 -84 473 -85 186 -1 368 44 545 135 174 89 309 214 389 361
l35 63 -77 -71 c-52 -49 -103 -85 -159 -113 -144 -71 -232 -87 -618 -111 -91
-5 -244 -23 -340 -40 -207 -36 -228 -37 -135 -6 101 32 223 99 286 155 62 56
112 136 229 371 45 91 91 177 102 193 24 33 18 34 -30 3 -58 -37 -108 -79
-229 -192 l-113 -106 0 54 c0 64 -26 374 -40 473 -5 39 -14 124 -21 190 -6 66
-20 146 -31 178 -19 57 -19 59 -2 72 18 13 18 14 -4 44 -27 38 -27 38 3 83
l25 37 -28 15 c-26 13 -30 22 -36 78 -13 128 -47 374 -58 413 -5 21 -24 53
-42 70 -29 30 -39 33 -141 44 -184 21 -409 72 -486 111 -21 11 -68 46 -103 78
-110 99 -290 221 -305 206 -3 -3 2 -10 12 -15 13 -8 15 -14 7 -29 -10 -18 -13
-17 -78 13 -64 31 -72 32 -192 32 -120 0 -128 -1 -192 -32 -65 -30 -68 -31
-78 -13 -8 15 -6 21 7 29 10 5 15 12 12 15 -15 15 -195 -107 -305 -206 -35
-32 -82 -67 -103 -78 -77 -39 -302 -90 -486 -111 -102 -11 -112 -14 -141 -44
-18 -17 -37 -49 -42 -70 -11 -39 -45 -285 -58 -413 -6 -56 -10 -65 -36 -78
l-28 -15 25 -37 c30 -45 30 -45 3 -83 -22 -30 -22 -31 -4 -44 17 -13 17 -15
-2 -72 -11 -32 -25 -112 -31 -178 -7 -66 -16 -151 -21 -190 -14 -99 -40 -409
-40 -473 l0 -54 -112 106 c-122 113 -172 155 -230 192 -48 31 -54 30 -30 -3
11 -16 57 -102 102 -193 117 -235 167 -315 229 -371 63 -56 185 -123 286 -155
93 -31 72 -30 -135 6 -96 17 -249 35 -340 40 -386 24 -474 40 -618 111 -56 28
-107 64 -159 113 l-77 71 35 -63 c80 -147 215 -272 389 -361 177 -91 359 -136
545 -135 134 1 234 19 473 85 201 56 212 55 212 -7 0 -33 -3 -35 -100 -84
-221 -111 -335 -142 -525 -142 -167 0 -314 37 -426 108 -21 13 -39 20 -39 16
0 -20 171 -172 238 -212 83 -49 208 -94 302 -109 143 -23 338 -9 463 34 27 9
51 15 53 13 4 -5 -26 -455 -32 -475 -2 -9 -42 1 -136 33 -739 257 -1375 766
-1801 1441 -93 148 -256 481 -312 638 -93 260 -155 516 -192 790 -24 183 -24
647 0 830 55 415 160 762 337 1120 183 368 380 646 660 925 279 280 557 477
925 660 409 203 826 316 1300 354 111 9 535 -3 655 -19z m-714 -3266 c4 -7 63
-39 131 -71 l125 -60 -25 -26 c-28 -30 -133 -239 -124 -248 3 -3 18 14 35 38
16 24 39 52 51 62 20 18 22 18 41 1 28 -25 25 -60 -15 -205 -35 -125 -36 -126
-46 -430 -6 -167 -12 -306 -14 -308 -7 -7 -112 161 -159 255 -135 268 -164
512 -86 724 26 72 28 87 19 119 -9 31 -8 48 6 91 10 30 20 57 22 62 6 11 31 8
39 -4z m646 -49 c16 -45 18 -62 9 -96 -9 -37 -7 -52 20 -124 77 -211 47 -455
-87 -723 -47 -94 -152 -262 -159 -255 -2 2 -8 141 -14 308 -10 304 -11 305
-46 430 -40 145 -43 180 -15 205 19 17 21 17 41 -1 12 -10 35 -38 51 -62 17
-24 32 -41 35 -38 9 9 -96 218 -124 248 l-25 26 125 60 c68 32 127 65 131 71
16 25 40 4 58 -49z"/>
<path d="M2592 6685 c-264 -110 -363 -178 -461 -319 -65 -95 -97 -165 -151
-331 -23 -71 -44 -136 -47 -144 -8 -21 210 155 310 249 58 55 114 121 158 187
93 138 213 286 293 361 37 34 63 62 59 61 -4 0 -77 -29 -161 -64z"/>
<path d="M6246 6688 c80 -75 200 -223 293 -361 44 -66 100 -132 158 -187 100
-94 318 -270 310 -249 -3 8 -24 73 -47 144 -54 166 -86 236 -151 331 -98 142
-198 210 -464 320 -87 35 -159 64 -162 64 -2 0 26 -28 63 -62z"/>
<path d="M2080 6428 c-238 -107 -331 -205 -416 -443 l-29 -80 0 -355 0 -355
33 54 c69 115 225 265 446 431 110 82 188 175 241 284 37 79 75 204 75 251 0
28 -2 27 -31 -25 -44 -77 -163 -189 -319 -300 -159 -114 -251 -209 -305 -314
-21 -42 -40 -76 -41 -76 -5 0 19 75 59 185 50 141 64 193 87 335 27 160 65
241 162 346 39 41 68 74 66 73 -1 0 -14 -5 -28 -11z"/>
<path d="M6897 6366 c98 -105 136 -186 163 -346 23 -142 37 -194 87 -335 40
-110 64 -185 59 -185 -1 0 -20 34 -41 76 -54 105 -146 200 -305 314 -156 111
-275 223 -319 300 -29 52 -31 53 -31 25 0 -47 38 -172 75 -251 53 -109 131
-202 241 -284 221 -166 377 -316 446 -431 l33 -54 0 355 0 355 -29 80 c-82
228 -185 343 -385 428 l-63 27 69 -74z"/>
<path d="M4371 6010 c-106 -39 -160 -106 -161 -198 0 -59 41 -102 97 -102 85
0 111 58 70 156 -29 67 -24 86 24 103 42 15 55 14 95 -5 56 -26 79 -81 79
-185 0 -84 -1 -87 -58 -200 -50 -100 -58 -122 -60 -179 -2 -52 1 -65 13 -65 8
0 16 9 18 20 16 94 35 119 147 195 126 86 175 154 175 243 0 95 -38 155 -128
199 -55 27 -75 32 -160 34 -78 3 -108 0 -151 -16z"/>
<path d="M1545 5944 c-161 -214 -225 -398 -225 -652 0 -126 26 -245 108 -497
38 -115 77 -246 87 -290 23 -104 28 -117 33 -80 16 132 81 274 192 420 46 61
115 151 152 200 72 95 163 265 199 375 19 58 50 200 44 200 -1 0 -18 -24 -38
-54 -22 -34 -87 -98 -165 -165 -71 -60 -152 -135 -180 -165 -114 -125 -178
-264 -189 -414 -4 -43 -10 -69 -15 -64 -5 5 -4 62 2 137 13 168 13 419 -1 525
-7 47 -12 153 -13 235 -1 159 8 217 50 313 13 28 21 52 19 52 -2 0 -29 -34
-60 -76z"/>
<path d="M7354 5968 c42 -96 51 -154 50 -313 -1 -82 -6 -188 -13 -235 -14
-106 -14 -357 -1 -525 6 -75 7 -132 2 -137 -5 -5 -11 21 -15 64 -11 150 -75
289 -189 414 -28 30 -109 105 -180 165 -78 67 -143 131 -165 165 -20 30 -37
54 -38 54 -6 0 25 -142 44 -200 36 -110 127 -280 199 -375 37 -49 106 -139
152 -200 111 -146 176 -288 192 -420 5 -37 10 -24 33 80 10 44 49 175 87 290
82 252 108 371 108 497 0 195 -42 362 -129 510 -36 62 -148 218 -156 218 -2 0
6 -24 19 -52z"/>
<path d="M4389 5191 c-33 -33 -39 -45 -39 -81 0 -36 6 -48 39 -81 33 -33 45
-39 81 -39 36 0 48 6 81 39 33 33 39 45 39 81 0 36 -6 48 -39 81 -33 33 -45
39 -81 39 -36 0 -48 -6 -81 -39z"/>
<path d="M1222 5068 c-50 -156 -57 -202 -56 -368 1 -131 6 -177 32 -298 44
-211 94 -305 295 -558 87 -109 188 -247 212 -288 7 -12 9 31 7 137 -5 194 8
267 93 527 94 289 135 506 134 700 l-1 95 -13 -47 c-21 -78 -67 -165 -170
-328 -113 -178 -148 -254 -165 -362 -13 -78 -10 -354 4 -393 7 -19 7 -19 -4
-2 -7 10 -27 94 -46 187 -38 190 -65 272 -135 413 -117 232 -152 359 -153 544
-1 73 -2 133 -3 133 -1 0 -15 -42 -31 -92z"/>
<path d="M7684 5028 c-1 -186 -36 -313 -153 -545 -70 -141 -97 -223 -135 -413
-19 -93 -39 -177 -46 -187 -11 -17 -11 -17 -4 2 14 39 17 315 4 393 -17 108
-52 184 -165 362 -103 163 -149 250 -170 328 l-13 47 -1 -95 c-1 -194 40 -411
134 -700 85 -260 98 -333 93 -527 -2 -106 0 -149 7 -137 24 41 125 179 212
288 202 255 251 348 294 558 51 250 49 422 -6 613 -47 162 -50 162 -51 13z"/>
<path d="M4335 4786 c-90 -41 -85 -57 7 -25 46 16 103 29 128 29 25 0 82 -13
128 -29 92 -32 97 -16 7 25 -40 19 -67 24 -135 24 -68 0 -95 -5 -135 -24z"/>
<path d="M1887 4148 c-3 -51 -22 -174 -43 -273 -33 -157 -38 -198 -38 -320 0
-133 1 -145 33 -235 18 -52 52 -132 76 -178 24 -45 40 -80 36 -78 -5 3 -65 91
-135 196 -110 165 -148 212 -280 349 -84 88 -176 190 -205 228 -60 78 -137
229 -147 288 -17 99 -25 62 -20 -95 7 -268 45 -370 232 -626 102 -138 175
-205 354 -322 243 -158 413 -271 437 -288 l23 -16 -24 43 c-85 154 -138 398
-151 704 -7 170 -28 342 -55 460 -17 71 -78 255 -84 255 -2 0 -6 -42 -9 -92z"/>
<path d="M7012 4155 c-63 -170 -96 -366 -107 -630 -13 -306 -66 -550 -151
-704 l-24 -43 23 16 c24 17 194 130 437 288 179 117 252 184 354 322 187 256
225 358 232 626 5 157 -3 194 -20 95 -10 -59 -87 -210 -147 -288 -29 -38 -121
-140 -205 -228 -132 -137 -170 -184 -280 -349 -70 -105 -130 -193 -135 -196
-4 -2 12 33 36 78 24 46 58 126 76 178 32 90 33 102 33 235 0 122 -5 163 -38
320 -21 99 -41 223 -44 275 l-7 95 -33 -90z"/>
<path d="M2100 3589 c0 -4 9 -26 19 -50 22 -50 47 -176 86 -421 14 -93 35
-201 46 -240 35 -128 121 -262 241 -380 38 -38 68 -68 66 -68 -2 0 -73 52
-158 115 -153 113 -224 153 -495 280 -200 93 -379 237 -477 385 -44 67 -49 71
-43 40 55 -291 253 -541 600 -757 99 -61 134 -75 285 -113 109 -28 550 -120
574 -120 6 0 -6 12 -27 27 -94 67 -201 262 -301 552 -84 240 -146 374 -245
531 -46 73 -171 233 -171 219z"/>
<path d="M6785 3529 c-147 -176 -251 -376 -361 -690 -100 -290 -207 -485 -301
-552 -21 -15 -33 -27 -27 -27 24 0 465 92 574 120 151 38 186 52 285 113 185
115 333 244 426 368 78 106 152 270 174 389 6 31 1 27 -43 -40 -98 -148 -277
-292 -477 -385 -271 -127 -342 -167 -495 -280 -85 -63 -156 -115 -158 -115 -2
0 28 30 66 67 120 119 206 253 241 381 11 39 32 147 46 240 39 246 64 371 86
421 11 24 18 45 16 47 -1 2 -25 -24 -52 -57z"/>
<path d="M6528 8065 c-14 -8 -36 -35 -48 -60 l-22 -46 22 -62 c29 -77 32 -135
8 -151 -14 -8 -21 -7 -34 5 -14 15 -14 19 0 47 16 30 15 30 -20 51 -19 12 -39
21 -43 21 -15 0 -44 -78 -37 -103 20 -81 141 -135 204 -91 28 20 52 65 52 101
0 15 -12 62 -27 104 -28 80 -26 109 7 109 26 0 36 -24 22 -55 -10 -21 -7 -26
25 -45 l37 -22 18 24 c46 60 18 130 -67 169 -48 22 -62 23 -97 4z"/>
<path d="M6916 7609 c-117 -195 -115 -187 -54 -230 l29 -21 89 82 c50 45 90
80 90 77 0 -3 -30 -49 -67 -103 l-66 -97 37 -34 c20 -19 41 -33 46 -31 15 5
320 259 320 266 0 4 -15 19 -34 34 l-35 28 -83 -78 c-133 -123 -135 -123 -49
0 44 64 81 119 81 122 0 3 -16 17 -36 32 l-35 27 -72 -69 c-142 -137 -145
-137 -58 -10 l81 120 -22 24 c-49 51 -46 53 -162 -139z"/>
<path d="M1823 7713 l-82 -66 126 -156 c69 -86 129 -159 132 -163 7 -8 171
119 171 132 0 4 -9 19 -21 34 l-21 26 -26 -20 c-74 -57 -70 -56 -102 -19 l-28
34 39 35 40 35 -25 30 -24 30 -40 -32 -40 -33 -27 32 -26 31 46 41 47 41 -29
27 -28 26 -82 -65z"/>
<path d="M6585 7643 l-25 -37 28 -23 c37 -30 47 -29 73 13 l22 36 -29 24 c-16
13 -32 23 -36 24 -4 0 -19 -17 -33 -37z"/>
<path d="M1612 7530 l-74 -70 138 -147 c76 -82 141 -149 146 -151 8 -4 158
128 158 140 0 4 -11 20 -24 35 l-25 28 -45 -45 -46 -44 -29 34 -29 35 36 37
36 38 -24 25 c-13 14 -27 25 -31 25 -5 0 -24 -13 -42 -30 -19 -16 -37 -30 -39
-30 -2 0 -15 14 -27 31 l-23 31 43 38 44 38 -24 26 c-14 14 -29 26 -35 26 -6
-1 -44 -32 -84 -70z"/>
<path d="M2176 7577 l-29 -24 27 -36 c29 -38 34 -38 81 -4 19 15 19 15 -5 51
-29 42 -36 43 -74 13z"/>
<path d="M7233 7330 c-79 -77 -143 -144 -143 -148 0 -4 34 -41 75 -82 l75 -75
27 28 27 27 -44 45 -44 45 29 30 c36 38 47 38 78 0 31 -36 37 -37 67 -5 l24
25 -34 35 -34 35 29 30 29 30 40 -39 41 -40 29 25 29 26 -74 74 c-40 41 -76
74 -79 74 -3 -1 -69 -64 -147 -140z"/>
<path d="M1396 7310 l-71 -71 150 -144 c83 -79 153 -144 157 -145 4 0 19 16
34 36 l28 36 -62 60 c-50 48 -60 63 -51 74 18 22 28 17 90 -36 32 -27 61 -50
66 -50 5 0 22 13 38 30 l28 30 -64 60 c-56 53 -68 60 -99 58 -34 -3 -35 -2
-32 28 3 25 -3 36 -37 67 -63 57 -88 52 -175 -33z m118 -41 c30 -23 33 -41 10
-59 -13 -11 -20 -9 -46 18 -27 26 -29 33 -18 46 16 21 22 20 54 -5z"/>
<path d="M1236 7129 c-32 -39 -59 -76 -60 -83 -1 -11 300 -266 314 -266 7 0
63 71 58 74 -1 1 -30 24 -63 51 -33 27 -62 50 -64 52 -2 1 9 19 24 38 l27 36
-23 25 c-29 31 -35 30 -66 -6 -13 -16 -28 -30 -31 -30 -4 0 -20 10 -36 23
l-29 23 33 38 33 37 -29 30 -30 29 -58 -71z"/>
<path d="M7523 7023 c-101 -54 -183 -102 -183 -108 1 -5 12 -23 25 -40 l24
-30 31 19 c30 17 32 17 51 0 24 -22 24 -36 -1 -59 -11 -10 -20 -23 -20 -29 1
-13 58 -82 63 -75 2 2 63 72 135 156 73 84 132 158 132 165 0 7 -17 32 -38 55
l-37 43 -182 -97z m97 -68 c-64 -64 -85 -75 -85 -41 0 11 27 34 70 61 39 24
72 44 75 44 2 1 -25 -28 -60 -64z"/>
<path d="M7695 6803 c-93 -63 -171 -116 -173 -118 -5 -5 42 -75 51 -75 4 0 39
21 78 47 57 38 72 44 80 32 17 -26 9 -38 -50 -79 -33 -22 -63 -45 -66 -51 -4
-5 5 -28 19 -50 24 -36 28 -38 42 -24 9 8 37 29 62 46 57 39 72 56 72 85 0 20
4 22 34 17 25 -4 44 1 70 17 78 47 74 97 -16 221 l-33 47 -170 -115z m183 -37
c5 -21 -33 -55 -60 -56 -9 0 -21 8 -27 17 -7 14 -3 22 22 40 37 26 60 26 65
-1z"/>
<path d="M1006 6819 c-15 -11 -36 -39 -47 -61 -27 -52 -19 -98 21 -132 45 -37
80 -41 155 -16 75 25 128 24 133 -3 2 -10 -2 -24 -8 -32 -10 -13 -16 -12 -42
1 -16 9 -31 14 -32 12 -1 -2 -13 -18 -26 -37 l-23 -34 24 -18 c71 -54 159 -12
190 91 21 71 -37 140 -118 140 -17 0 -56 -9 -88 -20 -32 -11 -68 -20 -80 -20
-31 0 -46 19 -34 42 10 19 44 25 54 8 11 -18 25 -11 45 23 25 41 25 39 -9 60
-39 23 -83 21 -115 -4z"/>
<path d="M7858 6557 c-98 -56 -178 -105 -178 -110 0 -4 23 -47 51 -97 l51 -89
34 16 c19 9 34 20 34 25 0 4 -13 29 -30 56 l-29 47 37 22 c20 13 40 23 43 23
3 0 15 -18 28 -40 12 -22 24 -40 27 -40 11 0 64 31 64 38 0 4 -9 22 -20 40
-11 18 -20 37 -20 42 0 8 51 40 64 40 3 0 17 -20 32 -45 14 -25 28 -45 30 -45
10 0 64 31 64 37 0 6 -100 183 -103 183 -1 0 -82 -47 -179 -103z"/>
<path d="M852 6580 l-22 -39 22 -15 c72 -44 340 -197 342 -194 1 1 12 19 24
39 17 29 19 39 10 46 -16 13 -344 203 -349 203 -2 0 -14 -18 -27 -40z"/>
<path d="M684 6259 c-25 -50 -43 -94 -40 -97 4 -3 88 -44 189 -92 l182 -87 47
91 c26 50 47 94 47 98 1 8 -52 38 -66 38 -4 0 -16 -21 -27 -46 -22 -54 -34
-61 -75 -39 -34 17 -37 28 -16 65 21 37 18 48 -15 65 -16 8 -31 15 -34 15 -3
0 -14 -20 -25 -45 -19 -44 -20 -44 -51 -33 -42 14 -45 28 -21 77 12 22 21 44
21 50 0 7 -51 31 -66 31 -2 0 -24 -41 -50 -91z"/>
<path d="M8051 6204 c-102 -47 -187 -86 -189 -88 -2 -3 15 -45 38 -94 l42 -91
34 17 c40 18 40 21 14 73 l-21 40 88 40 c48 22 118 54 155 71 l66 30 -15 37
c-8 20 -18 39 -21 43 -4 4 -90 -31 -191 -78z"/>
<path d="M600 6052 c-26 -26 -50 -85 -50 -122 0 -8 9 -29 19 -46 16 -27 41
-40 149 -83 149 -58 182 -62 219 -25 22 22 25 32 21 69 -4 32 -2 42 7 38 13
-4 42 63 32 73 -3 3 -49 23 -104 44 l-98 39 -22 -47 c-29 -63 -28 -70 10 -85
27 -11 34 -11 42 0 17 22 77 -3 73 -31 -5 -33 -28 -30 -141 14 -118 46 -139
62 -114 87 14 14 21 15 43 4 15 -6 28 -10 29 -9 1 2 9 22 18 45 l16 41 -31 11
c-53 19 -87 13 -118 -17z"/>
<path d="M8145 5985 c-130 -50 -189 -77 -187 -86 3 -15 64 -182 68 -187 4 -6
74 19 74 26 0 4 -9 31 -20 60 l-20 52 22 9 c66 24 65 25 83 -24 10 -25 21 -45
26 -45 6 0 52 17 67 25 1 1 -5 18 -13 38 -8 20 -15 42 -15 49 0 14 58 41 71
33 4 -3 15 -27 24 -54 l16 -50 37 14 c22 7 36 18 34 26 -6 28 -65 180 -71 183
-3 2 -92 -29 -196 -69z"/>
<path d="M523 5788 c-12 -6 -29 -25 -37 -42 -19 -40 -51 -155 -45 -161 6 -5
393 -125 395 -122 1 1 11 34 23 74 44 147 29 168 -152 224 -137 42 -150 44
-184 27z m165 -123 c103 -33 112 -38 112 -60 0 -14 -5 -25 -12 -25 -11 0 -250
70 -256 76 -8 6 20 44 32 44 7 0 63 -16 124 -35z"/>
<path d="M8235 5741 c-66 -20 -130 -44 -142 -51 -49 -31 -52 -103 -7 -139 16
-12 20 -21 12 -23 -10 -4 -10 -13 0 -45 l12 -41 106 33 c58 18 107 35 109 37
4 4 -24 109 -31 116 -1 2 -19 -1 -39 -8 -23 -8 -35 -17 -33 -27 3 -18 -44 -38
-67 -29 -23 8 -18 42 8 53 52 23 217 65 231 60 28 -11 19 -44 -15 -56 -23 -8
-30 -15 -25 -27 3 -9 9 -27 12 -40 3 -13 13 -24 20 -24 28 0 83 29 93 48 28
53 -5 159 -58 186 -41 22 -48 21 -186 -23z"/>
<path d="M392 5419 c-12 -56 -21 -103 -20 -104 6 -3 403 -94 405 -92 1 2 13
49 26 106 26 110 26 110 -28 114 -22 1 -30 -3 -33 -18 -2 -11 -8 -36 -13 -56
l-9 -37 -43 11 c-23 5 -43 11 -45 12 -2 2 2 24 9 49 6 26 10 48 8 50 -2 3 -21
7 -41 11 -29 6 -38 4 -38 -6 0 -8 -5 -30 -10 -50 l-10 -37 -41 11 c-35 8 -40
13 -35 31 3 12 9 37 12 57 5 32 3 37 -17 42 -51 14 -53 11 -77 -94z"/>
<path d="M8315 5460 l-190 -48 2 -38 c2 -21 7 -42 12 -47 6 -6 340 66 397 87
15 6 -5 96 -20 95 -6 -1 -96 -23 -201 -49z"/>
<path d="M8320 5319 c-106 -22 -145 -48 -156 -106 -9 -48 20 -119 56 -138 38
-20 65 -19 188 5 163 32 188 52 180 148 -4 47 -10 60 -37 84 -38 34 -87 36
-231 7z m194 -86 c4 -9 2 -21 -3 -26 -13 -13 -241 -58 -259 -52 -7 3 -12 15
-10 27 3 21 14 25 113 44 138 27 151 28 159 7z"/>
<path d="M685 5161 c-4 -28 -12 -51 -18 -51 -7 0 -75 11 -151 25 -77 14 -148
25 -157 25 -12 0 -19 -12 -24 -41 -4 -22 -4 -43 -1 -46 7 -7 399 -74 403 -69
6 6 36 187 32 191 -2 2 -20 6 -40 10 l-37 7 -7 -51z"/>
<path d="M8386 5037 l-188 -21 5 -43 c2 -24 6 -46 8 -48 2 -2 56 3 119 10 63
7 117 12 119 10 2 -2 -14 -11 -35 -20 -22 -8 -74 -30 -116 -48 l-78 -32 0 -40
c0 -70 -5 -68 205 -46 103 12 194 21 201 21 10 0 14 14 14 43 0 24 -2 46 -5
48 -2 3 -55 0 -117 -7 -62 -8 -113 -12 -114 -11 -2 1 46 24 107 51 60 27 111
51 112 55 2 3 2 27 -1 54 -3 41 -7 47 -26 46 -11 -1 -106 -11 -210 -22z"/>
<path d="M310 4965 c0 -38 3 -45 23 -50 12 -3 74 -16 137 -29 l115 -24 -120
-1 c-158 -2 -162 -3 -167 -54 -3 -23 -4 -43 -3 -44 1 -2 62 -14 135 -28 73
-14 136 -27 138 -30 3 -3 -56 -5 -132 -5 l-136 0 -10 -26 c-6 -14 -10 -36 -10
-50 0 -20 5 -24 30 -24 42 0 373 30 388 35 7 3 12 23 12 54 0 57 9 51 -125 77
-49 10 -94 21 -99 26 -6 4 44 8 111 8 l120 0 6 53 c2 28 4 53 2 55 -5 5 -384
102 -400 102 -11 0 -15 -12 -15 -45z"/>
<path d="M8230 4664 l0 -45 47 3 c51 3 61 16 49 64 -6 21 -12 24 -51 24 l-45
0 0 -46z"/>
<path d="M344 4540 c-41 -16 -64 -59 -64 -116 0 -45 5 -59 29 -86 l29 -33 129
-3 c152 -4 196 6 223 51 39 63 14 165 -46 187 -31 12 -271 12 -300 0z m289
-104 c11 -29 -17 -36 -144 -36 -128 0 -147 5 -135 35 8 21 271 22 279 1z"/>
<path d="M8436 4425 c-128 -15 -191 -27 -197 -36 -5 -8 -9 -33 -9 -55 l0 -41
108 -18 c59 -10 113 -21 121 -25 8 -4 -38 -9 -102 -12 -64 -2 -120 -7 -123
-11 -4 -4 -9 -28 -11 -54 l-5 -48 203 -48 c112 -26 207 -47 212 -47 4 0 7 22
7 48 l0 48 -112 18 c-155 26 -178 34 -103 35 33 1 97 4 143 8 l83 6 -3 46 -3
46 -127 20 c-69 11 -130 23 -134 28 -4 4 33 7 82 8 49 0 112 4 139 7 l50 7 3
48 c3 40 0 47 -15 46 -10 -1 -103 -12 -207 -24z"/>
<path d="M500 4259 c-102 -9 -191 -18 -197 -18 -9 -1 -13 -17 -13 -46 0 -52
-6 -51 150 -35 47 4 86 7 88 5 1 -1 -49 -23 -112 -49 l-115 -48 6 -51 c3 -29
6 -52 7 -53 1 -1 89 7 196 17 107 10 201 18 209 19 10 0 12 10 8 41 -3 22 -8
43 -11 46 -2 3 -56 1 -118 -5 -62 -5 -114 -8 -116 -7 -2 1 48 23 110 48 l113
45 0 53 c0 29 -4 53 -10 54 -5 1 -93 -6 -195 -16z"/>
<path d="M8205 3998 c-18 -110 -25 -170 -20 -179 4 -5 21 -9 40 -9 33 0 34 1
40 48 10 70 9 69 57 63 l43 -6 -3 -51 c-4 -50 -3 -51 28 -58 18 -3 36 -6 40
-6 4 0 10 20 13 45 2 26 7 49 10 52 3 3 22 2 42 -1 l36 -7 -7 -60 c-7 -59 -6
-59 20 -60 14 -1 32 -2 38 -3 17 -1 50 204 34 209 -18 5 -370 55 -388 55 -11
0 -19 -11 -23 -32z"/>
<path d="M615 3920 l-111 -59 -89 24 c-49 14 -90 23 -92 21 -2 -1 0 -24 3 -49
l7 -46 56 -11 c135 -26 134 -25 44 -39 -89 -14 -90 -15 -77 -78 l6 -30 196 34
c109 18 200 33 205 33 9 0 9 52 1 75 -6 13 -17 15 -75 9 -88 -8 -89 5 -4 45
l65 30 -6 43 c-4 24 -9 46 -13 50 -3 4 -56 -20 -116 -52z"/>
<path d="M8145 3648 c-12 -36 -35 -139 -35 -157 0 -35 27 -77 57 -89 47 -19
230 -62 261 -62 44 0 61 9 76 39 16 32 50 170 44 177 -4 4 -383 103 -396 104
-1 0 -5 -6 -7 -12z m204 -138 c58 -14 106 -31 108 -37 2 -6 -3 -17 -11 -26
-14 -13 -27 -12 -124 13 -128 32 -132 34 -132 66 0 22 3 24 28 17 15 -3 74
-18 131 -33z"/>
<path d="M752 3549 c-28 -8 -32 -13 -27 -32 4 -12 9 -30 12 -40 4 -16 11 -18
41 -12 49 9 55 16 47 59 -8 39 -15 41 -73 25z"/>
<path d="M708 3403 c-27 -17 -49 -54 -87 -146 -23 -54 -45 -68 -69 -43 -16 16
-16 18 6 36 12 10 27 20 32 22 10 3 -4 63 -19 80 -4 4 -25 -2 -48 -13 -30 -15
-45 -30 -53 -54 -24 -73 34 -175 100 -175 69 0 110 32 140 110 38 101 63 127
95 100 24 -20 17 -41 -15 -53 -33 -13 -35 -19 -19 -66 11 -30 15 -32 42 -27
39 8 57 23 74 64 18 42 1 111 -37 152 -23 25 -36 30 -72 30 -23 0 -55 -8 -70
-17z"/>
<path d="M8110 3356 c-74 -24 -108 -143 -57 -198 31 -34 264 -112 306 -103 51
11 91 69 91 134 0 61 -36 93 -144 131 -126 43 -157 49 -196 36z m139 -121
c113 -38 133 -49 124 -71 -8 -21 -40 -17 -153 21 -115 39 -124 44 -114 68 9
24 26 22 143 -18z"/>
<path d="M691 3089 c-79 -32 -146 -60 -148 -63 -2 -2 4 -22 13 -45 12 -31 21
-41 33 -36 9 3 80 31 159 62 111 44 145 54 154 45 24 -24 -9 -46 -152 -104
-78 -32 -145 -60 -147 -62 -7 -6 16 -74 27 -81 8 -5 216 74 298 112 79 38 82
152 6 212 -41 32 -85 25 -243 -40z"/>
<path d="M7925 2969 c-11 -23 -15 -43 -9 -48 5 -4 53 -27 106 -51 53 -25 96
-46 94 -48 -2 -2 -56 4 -120 13 -64 9 -120 14 -125 11 -15 -9 -46 -89 -36 -93
6 -2 91 -41 190 -88 l180 -83 17 31 c29 55 35 49 -140 129 -24 11 -42 21 -40
23 2 2 48 -3 103 -10 138 -20 132 -21 157 30 12 24 20 47 17 49 -4 4 -199 95
-325 152 l-52 23 -17 -40z"/>
<path d="M955 2685 c-125 -67 -141 -73 -152 -58 -7 9 -14 20 -15 25 -2 6 -20
2 -41 -8 -21 -10 -36 -20 -35 -23 2 -3 25 -48 51 -98 l47 -93 35 17 c25 12 34
21 29 32 -18 44 -16 45 128 120 79 41 145 76 147 77 8 7 -32 84 -43 84 -6 -1
-74 -34 -151 -75z"/>
<path d="M7801 2682 c-65 -35 -92 -132 -51 -184 29 -37 217 -140 267 -146 38
-4 46 -1 77 30 47 47 61 101 38 148 -14 28 -39 47 -127 97 -130 74 -157 81
-204 55z m227 -178 c22 -13 32 -25 30 -39 -5 -32 -34 -24 -145 39 -73 40 -103
63 -103 76 0 10 6 20 13 23 10 4 95 -37 205 -99z"/>
<path d="M1096 2548 c-21 -13 -39 -27 -38 -31 0 -4 10 -24 21 -43 l21 -35 40
22 c32 18 42 20 54 10 8 -7 12 -19 10 -26 -3 -7 -55 -44 -116 -81 -106 -65
-111 -67 -125 -48 -13 17 -11 21 16 45 17 14 31 29 31 33 0 4 -10 22 -23 41
l-23 34 -32 -22 c-47 -33 -67 -81 -53 -127 25 -84 89 -124 156 -96 45 19 182
102 212 129 35 31 48 72 35 115 -26 87 -112 123 -186 80z"/>
<path d="M7620 2404 c-13 -19 -19 -39 -14 -43 5 -4 66 -45 137 -91 119 -77
142 -100 117 -115 -5 -3 -10 -12 -10 -18 0 -17 60 -52 69 -41 4 5 31 46 61 92
57 88 56 85 6 114 -17 9 -23 7 -34 -11 -8 -11 -18 -21 -23 -21 -4 0 -67 38
-138 85 -72 47 -135 85 -140 85 -5 0 -19 -16 -31 -36z"/>
<path d="M1298 2349 l-27 -20 36 -50 c34 -48 35 -51 17 -65 -49 -38 -56 -38
-81 -8 -13 16 -23 32 -23 37 0 13 -21 7 -51 -14 l-29 -21 31 -40 32 -40 -29
-24 c-16 -13 -32 -23 -36 -24 -4 0 -21 20 -39 45 -18 25 -33 45 -34 45 -1 0
-15 -11 -33 -23 l-32 -24 64 -86 63 -87 164 120 c90 66 165 124 167 128 3 10
-115 172 -125 172 -5 0 -20 -10 -35 -21z"/>
<path d="M7442 2159 c-13 -16 -22 -33 -20 -38 2 -5 31 -32 66 -59 l62 -50 -25
-30 c-32 -38 -31 -46 2 -72 l27 -21 31 36 30 35 32 -26 33 -25 -32 -39 c-26
-34 -29 -42 -18 -55 34 -41 46 -38 102 33 30 37 57 72 61 78 6 11 -302 265
-319 263 -5 0 -19 -13 -32 -30z"/>
<path d="M1515 2001 l-60 -49 -42 39 c-52 48 -85 50 -140 10 -99 -72 -99 -114
0 -233 21 -27 42 -48 47 -48 4 0 77 57 161 127 85 69 156 127 157 129 5 3 -51
74 -58 74 -3 -1 -32 -23 -65 -49z m-134 -87 c11 -13 8 -19 -21 -42 -40 -32
-49 -33 -64 -10 -8 14 -5 22 14 43 27 29 52 32 71 9z"/>
<path d="M7279 1964 c-61 -39 -87 -123 -53 -172 8 -12 58 -61 111 -107 82 -74
100 -85 131 -85 74 0 132 60 132 137 0 35 -7 45 -87 122 -48 46 -101 92 -118
103 -37 22 -81 23 -116 2z m142 -151 c46 -42 88 -83 92 -90 8 -13 -7 -43 -22
-43 -9 0 -183 159 -194 177 -4 7 -5 18 -2 23 14 23 47 6 126 -67z"/>
<path d="M1600 1858 l-52 -106 -91 -37 c-51 -21 -94 -40 -96 -42 -3 -2 10 -19
29 -38 l33 -34 48 25 c27 13 51 24 54 24 2 0 -9 -23 -27 -51 l-31 -51 38 -36
c20 -21 39 -32 41 -27 3 6 22 48 43 95 l39 85 98 43 c54 23 103 47 109 53 6 6
-2 21 -23 42 l-33 32 -59 -32 c-33 -18 -60 -30 -60 -28 0 3 14 30 31 61 l32
56 -36 36 -36 36 -51 -106z"/>
<path d="M7112 1787 l-34 -35 63 -67 c50 -53 60 -68 48 -76 -27 -17 -48 -9
-80 31 -18 22 -42 46 -54 54 -20 13 -25 12 -58 -15 l-35 -29 67 -65 c53 -51
74 -65 98 -65 27 0 29 -2 25 -30 -3 -25 3 -37 36 -70 41 -42 70 -49 108 -27
34 19 134 111 133 122 0 6 -64 77 -142 158 l-142 148 -33 -34z m198 -288 c1
-18 -30 -30 -49 -19 -35 18 -45 49 -25 71 17 19 18 19 45 -13 16 -18 28 -36
29 -39z"/>
<path d="M1835 1720 l-28 -30 47 -41 47 -42 -32 -33 -32 -33 -39 32 -39 31
-26 -27 -27 -27 37 -38 37 -38 -29 -28 -29 -28 -41 38 -42 37 -24 -23 c-14
-13 -25 -27 -25 -31 0 -8 87 -93 130 -127 l25 -19 135 149 c74 83 136 153 138
157 1 4 -33 40 -76 79 l-79 71 -28 -29z"/>
<path d="M6869 1571 c-16 -16 -29 -36 -29 -45 0 -10 -6 -13 -16 -9 -13 5 -64
-31 -64 -46 0 -5 107 -140 130 -165 5 -5 30 7 59 29 l49 38 -20 28 c-15 20
-28 27 -42 24 -28 -7 -64 40 -49 63 5 9 14 17 21 20 14 4 172 -187 172 -211 0
-28 -28 -32 -55 -7 -25 24 -44 20 -77 -17 -17 -18 -16 -21 15 -50 17 -17 42
-34 54 -37 53 -16 153 66 153 125 0 40 -10 58 -98 167 -103 128 -147 148 -203
93z"/>
<path d="M2127 1465 c-15 -19 -27 -38 -27 -42 0 -8 54 -48 64 -48 10 0 55 68
50 76 -2 4 -17 17 -32 28 l-28 20 -27 -34z"/>
<path d="M6682 1423 l-33 -28 122 -167 c131 -178 123 -173 178 -129 l24 19
-122 166 c-67 91 -126 166 -130 166 -4 0 -21 -12 -39 -27z"/>
<path d="M2171 1275 c-52 -74 -96 -135 -98 -135 -2 0 -14 7 -27 15 -23 15 -25
15 -45 -14 -12 -16 -21 -31 -21 -34 0 -5 132 -100 167 -120 7 -4 21 6 34 25
l23 31 -22 15 c-12 8 -22 18 -22 23 0 5 41 67 90 138 50 71 90 132 90 137 0 7
-63 54 -72 54 -2 0 -45 -61 -97 -135z"/>
<path d="M6528 1319 c-27 -17 -48 -35 -48 -39 0 -9 156 -370 163 -377 8 -7 67
26 73 42 3 7 -21 64 -53 126 -32 63 -60 118 -62 124 -2 5 33 -37 79 -95 45
-58 86 -109 90 -113 4 -5 26 3 49 18 l40 27 -121 137 c-67 75 -131 146 -142
158 l-21 22 -47 -30z"/>
<path d="M2404 1298 c-4 -7 -14 -23 -21 -35 -13 -20 -11 -23 36 -50 28 -15 51
-32 51 -37 0 -5 -9 -24 -21 -43 l-21 -34 -45 27 c-24 14 -46 24 -47 22 -17
-25 -36 -58 -36 -62 0 -2 17 -15 38 -27 20 -12 39 -24 41 -26 5 -4 -32 -73
-39 -73 -3 0 -25 14 -50 30 -42 28 -46 29 -58 12 -32 -41 -33 -51 -10 -66 73
-46 161 -97 163 -94 2 3 202 334 211 350 3 5 -170 118 -181 118 -2 0 -7 -6
-11 -12z"/>
<path d="M6303 1182 c-45 -26 -84 -50 -88 -54 -5 -5 7 -31 31 -67 2 -2 24 8
50 23 25 14 50 26 54 26 8 0 53 -71 48 -75 -2 -1 -21 -12 -43 -25 -22 -13 -41
-24 -43 -25 -6 -5 34 -65 43 -65 6 0 24 9 40 20 41 27 49 25 68 -14 l16 -35
-47 -27 c-26 -15 -48 -28 -50 -30 -7 -5 29 -64 38 -64 13 0 180 93 180 101 0
13 -196 353 -205 355 -5 2 -47 -18 -92 -44z"/>
<path d="M2571 1079 c-29 -55 -51 -102 -50 -103 10 -9 111 -57 114 -54 1 2 10
17 19 35 15 29 15 33 0 41 -15 8 -15 12 0 40 17 34 52 43 62 18 7 -18 -102
-235 -121 -243 -9 -3 -22 0 -30 7 -12 10 -13 17 -1 45 14 32 13 33 -20 49 -48
22 -50 21 -69 -27 -12 -32 -14 -49 -6 -69 15 -39 74 -80 124 -85 62 -7 94 24
160 155 62 122 71 151 57 186 -12 31 -64 60 -96 52 -17 -5 -22 -3 -18 7 3 8
-10 20 -31 30 -20 9 -37 17 -39 17 -1 0 -26 -45 -55 -101z"/>
<path d="M6135 1093 c-16 -8 -31 -17 -33 -18 -5 -4 37 -85 44 -85 5 0 66 30
72 35 6 5 -38 85 -46 85 -4 -1 -20 -8 -37 -17z"/>
<path d="M2853 1023 c-6 -21 -19 -59 -29 -85 -15 -39 -17 -53 -7 -78 10 -27 9
-30 -7 -30 -25 0 -68 -54 -76 -95 -9 -50 13 -77 90 -114 119 -56 102 -67 189
136 42 98 78 184 79 191 2 7 -16 21 -39 31 l-41 19 -23 -51 c-12 -29 -28 -67
-36 -85 -12 -28 -16 -31 -33 -22 -26 14 -25 24 5 98 14 34 25 68 25 75 0 7
-17 19 -37 27 -21 8 -40 16 -43 18 -3 1 -11 -15 -17 -35z m44 -251 c10 -6 9
-17 -4 -50 -18 -46 -21 -48 -48 -28 -19 14 -19 16 -2 50 17 36 31 43 54 28z"/>
<path d="M5846 964 c-22 -8 -41 -15 -42 -17 -1 -1 10 -55 25 -119 16 -65 25
-116 22 -114 -3 2 -28 50 -56 105 -27 56 -54 101 -59 101 -6 0 -30 -7 -53 -16
-35 -14 -42 -20 -38 -38 3 -11 20 -103 38 -203 19 -101 36 -185 39 -188 4 -4
75 20 85 29 1 1 -13 64 -31 139 -18 76 -32 136 -30 134 2 -2 30 -58 63 -125
33 -67 65 -122 71 -122 6 0 26 6 44 14 l34 14 -34 134 c-18 73 -33 135 -33
138 0 3 29 -52 64 -122 l65 -127 45 15 c25 9 45 18 45 21 0 16 -206 363 -215
362 -5 0 -28 -7 -49 -15z"/>
<path d="M3126 898 c-30 -27 -106 -233 -106 -287 0 -20 7 -46 15 -57 20 -30
76 -54 123 -54 64 0 84 24 130 158 45 128 51 175 26 210 -38 54 -142 71 -188
30z m104 -63 c9 -11 5 -36 -24 -123 -20 -60 -43 -118 -51 -128 -13 -18 -15
-18 -31 -2 -15 15 -14 22 16 115 50 150 63 170 90 138z"/>
<path d="M5441 832 l-93 -26 6 -34 c3 -19 7 -37 10 -40 3 -3 31 2 61 11 56 16
56 16 65 -7 21 -57 18 -69 -27 -80 -23 -6 -44 -14 -47 -17 -3 -3 -1 -22 5 -42
9 -32 12 -35 32 -28 67 25 75 23 86 -15 13 -46 10 -51 -37 -59 -58 -9 -65 -17
-55 -56 5 -19 13 -34 19 -34 29 0 194 50 194 59 1 32 -105 396 -114 395 -6 0
-53 -13 -105 -27z"/>
<path d="M3471 793 c-34 -134 -30 -125 -57 -119 -13 3 -35 9 -48 12 -20 5 -24
1 -30 -27 -9 -46 -10 -45 35 -58 40 -12 41 -13 34 -49 -4 -20 -8 -38 -10 -40
-1 -2 -24 2 -49 9 -26 6 -49 9 -52 7 -9 -10 -22 -68 -16 -71 18 -9 183 -49
187 -45 13 13 108 389 99 397 -5 5 -26 12 -46 16 -36 7 -37 6 -47 -32z"/>
<path d="M3766 678 c-10 -51 -23 -127 -29 -168 l-13 -75 -30 3 c-26 3 -32 -1
-38 -20 -14 -53 -12 -54 100 -72 58 -10 107 -16 108 -14 2 1 6 20 10 41 6 35
5 37 -18 37 -14 0 -27 4 -30 9 -3 4 7 81 22 169 l28 161 -31 6 c-16 4 -37 9
-47 11 -13 4 -19 -11 -32 -88z"/>
<path d="M5090 756 c-136 -25 -146 -48 -114 -245 29 -179 40 -189 179 -171 56
7 95 17 95 24 0 6 -14 100 -31 209 -26 164 -34 197 -48 196 -9 -1 -45 -7 -81
-13z m36 -208 c19 -130 19 -133 1 -136 -11 -2 -23 0 -28 5 -5 5 -18 61 -29
123 -20 118 -17 140 19 140 14 0 20 -24 37 -132z"/>
<path d="M4002 717 c-42 -24 -53 -53 -67 -183 -8 -69 -11 -133 -9 -142 21 -63
62 -92 133 -92 30 0 49 7 72 28 36 32 44 66 55 223 l7 106 -30 33 c-25 28 -37
34 -84 37 -33 2 -63 -2 -77 -10z m86 -70 c13 -16 -9 -252 -25 -268 -14 -14
-43 0 -43 20 0 9 5 66 11 126 13 127 28 158 57 122z"/>
<path d="M4785 722 c-42 -7 -75 -25 -91 -50 -14 -22 -16 -43 -11 -142 8 -148
14 -174 44 -205 46 -46 145 -43 189 6 17 19 19 36 17 145 -2 137 -13 192 -42
218 -22 20 -75 34 -106 28z m40 -94 c8 -39 22 -232 17 -245 -5 -17 -41 -17
-47 0 -8 23 -25 248 -20 258 12 18 45 9 50 -13z"/>
<path d="M4230 652 c0 -32 -3 -127 -7 -210 l-6 -152 46 0 45 0 6 73 c4 39 7
92 9 117 2 43 3 42 26 -45 13 -49 29 -105 37 -123 12 -30 16 -32 63 -32 l51 0
0 98 c0 53 3 148 7 210 l6 112 -46 0 c-56 0 -56 0 -60 -145 l-2 -100 -35 125
-35 125 -52 3 -53 3 0 -59z"/>
</g>
</svg>
